<?xml version="1.0" standalone="no"?>
<!DOCTYPE svg PUBLIC "-//W3C//DTD SVG 20010904//EN"
 "http://www.w3.org/TR/2001/REC-SVG-20010904/DTD/svg10.dtd">
<svg version="1.0" xmlns="http://www.w3.org/2000/svg"
 width="340.000000pt" height="340.000000pt" viewBox="0 0 340.000000 340.000000"
 preserveAspectRatio="xMidYMid meet">

<g transform="translate(0.000000,340.000000) scale(0.100000,-0.100000)"
fill="#000000" stroke="none">
<path d="M1037 2869 c-287 -70 -407 -498 -193 -686 27 -24 64 -45 88 -51 24
-5 113 -28 198 -51 168 -44 186 -44 265 -4 197 102 281 418 156 590 -23 32
-46 47 -117 77 -49 21 -129 58 -179 81 -97 47 -158 59 -218 44z m138 -68 c50
-23 78 -53 104 -112 30 -67 36 -142 17 -222 -29 -126 -95 -215 -192 -263 -45
-22 -64 -26 -114 -22 -73 5 -122 40 -160 114 -22 42 -25 61 -25 149 0 97 2
104 38 177 77 157 217 232 332 179z"/>
<path d="M1635 2643 c24 -58 35 -115 35 -182 0 -142 -49 -261 -144 -356 -34
-34 -76 -68 -95 -77 -18 -8 -29 -18 -25 -20 5 -3 53 -16 107 -29 l97 -23 0
-72 0 -73 -42 -3 -43 -3 -3 -144 c-2 -113 0 -147 12 -160 12 -14 -13 -63 -215
-416 -126 -221 -228 -409 -226 -420 2 -18 11 -20 93 -23 l91 -3 217 381 c120
209 219 380 221 380 2 0 101 -171 221 -380 l217 -381 91 3 c82 3 91 5 94 23 1
11 -96 191 -227 420 -191 333 -227 402 -215 411 12 9 14 40 12 160 l-3 149
-42 3 -43 3 0 45 c0 44 0 44 28 37 15 -5 52 -8 83 -8 175 0 313 242 254 443
-23 77 -61 108 -221 179 -76 34 -183 82 -238 108 -75 35 -97 41 -91 28z"/>
<path d="M2247 2333 c24 -78 13 -206 -25 -287 -33 -70 -108 -158 -155 -183
-16 -8 -27 -16 -24 -19 2 -2 62 -20 133 -40 118 -33 133 -35 174 -24 55 14 63
14 122 5 61 -10 90 -2 133 37 120 105 108 306 -21 348 -20 7 -40 23 -48 38
-24 46 -57 69 -176 121 -63 28 -117 51 -121 51 -4 0 0 -21 8 -47z"/>
</g>
</svg>
